<svg xmlns="http://www.w3.org/2000/svg" viewBox="0 0 700 210" role="img" aria-label="Asqueel — anguilla @"><title>Asqueel — anguilla @</title><g fill="none" stroke="#571F2B" stroke-width="13" stroke-linecap="round" stroke-linejoin="round">
 <path d="M115 75 C105 63 84 65 76 83 C65 108 79 122 94 119 C109 116 116 99 115 75 Z"/>
 <path d="M119 69 L111 108 C108 126 128 133 143 119 C165 98 163 64 143 45 C113 16 67 27 46 55 C21 88 26 132 55 155 C85 180 135 178 165 148"/>
 </g><path fill="#C78249" d="M120 58 C126 70 125 91 116 109 C119 87 116 76 113 70 Z"/>
 <path fill="#571F2B" d="M152 148 C156 139 169 133 178 135 C184 138 177 152 166 157 C161 159 156 156 152 148Z"/>
 <circle cx="172" cy="141" r="2.7" fill="#F5EBDD"/><path fill="#571F2B" transform="translate(188.000 135) scale(0.05859375 -0.05859375)" d="M65 64 132 244Q291 140 388 140Q564 140 564 288Q564 394 394 470Q263 530 217.5 561.0Q172 592 138.5 631.5Q105 671 88.5 715.5Q72 760 72 811Q72 943 168.0 1017.0Q264 1091 419 1091Q536 1091 714 1017L660 841Q547 931 433 931Q365 931 318.5 899.0Q272 867 272 818Q272 715 389 662L525 600Q650 543 707.0 470.0Q764 397 764 287Q764 143 663.0 61.5Q562 -20 383 -20Q214 -20 65 64Z"/><path fill="#571F2B" transform="translate(237.277 135) scale(0.05859375 -0.05859375)" d="M821 -420V63Q738 -20 543 -20Q324 -20 199.5 126.5Q75 273 75 533Q75 790 217.5 940.5Q360 1091 584 1091Q724 1091 845 990L896 1071H1011V-420ZM821 849Q739 931 616 931Q455 931 365.0 822.0Q275 713 275 533Q275 347 365.0 243.5Q455 140 608 140Q745 140 821 210Z"/><path fill="#571F2B" transform="translate(304.836 135) scale(0.05859375 -0.05859375)" d="M315 1071V388Q315 140 530 140Q624 140 702.0 194.0Q780 248 805 319V1071H995V0H805V148Q773 85 676.5 32.5Q580 -20 488 -20Q312 -20 218.5 81.0Q125 182 125 368V1071Z"/><path fill="#571F2B" transform="translate(371.105 135) scale(0.05859375 -0.05859375)" d="M1037 517H265Q265 329 368 228Q459 140 602 140Q765 140 874 235L954 98Q910 54 819 22Q705 -20 565 -20Q363 -20 222 117Q65 268 65 523Q65 788 226 948Q370 1091 567 1091Q796 1091 926 962Q1052 838 1052 633Q1052 570 1037 517ZM576 931Q449 931 363 849Q281 771 270 655H863Q863 770 791 847Q712 931 576 931Z"/><path fill="#571F2B" transform="translate(437.258 135) scale(0.05859375 -0.05859375)" d="M1037 517H265Q265 329 368 228Q459 140 602 140Q765 140 874 235L954 98Q910 54 819 22Q705 -20 565 -20Q363 -20 222 117Q65 268 65 523Q65 788 226 948Q370 1091 567 1091Q796 1091 926 962Q1052 838 1052 633Q1052 570 1037 517ZM576 931Q449 931 363 849Q281 771 270 655H863Q863 770 791 847Q712 931 576 931Z"/><path fill="#571F2B" transform="translate(503.410 135) scale(0.05859375 -0.05859375)" d="M150 303V1510H340V335Q340 249 389.5 199.5Q439 150 519 150V-20Q150 -20 150 303Z"/></svg>